<svg width="391" height="391" viewBox="0 0 391 391" fill="none" xmlns="http://www.w3.org/2000/svg">
<path d="M328.362 138.773L329.328 249.432L251.763 328.361L141.105 329.328L62.1748 251.763L61.2081 141.105L138.773 62.1745L249.433 61.2081L328.362 138.773Z" fill="white" stroke="#0B1E96" stroke-width="10"/>
<path d="M239.45 86.2206L303.891 149.546L304.679 239.891L241.353 304.332L151.009 305.12L86.5679 241.794L85.7795 151.45L149.105 87.009L239.45 86.2206Z" fill="black"/>
<rect x="129.217" y="182.541" width="116.403" height="70" transform="rotate(49.4489 129.217 182.541)" fill="white"/>
<rect x="149" y="239.989" width="109.979" height="70" transform="rotate(-1.47147 149 239.989)" fill="white"/>
<rect x="184" y="265.115" width="109.979" height="70" transform="rotate(-44.5219 184 265.115)" fill="white"/>
<rect x="246.847" y="259.01" width="75.2848" height="70" transform="rotate(-94.6334 246.847 259.01)" fill="white"/>
<mask id="path-7-outside-1_1333_9" maskUnits="userSpaceOnUse" x="80" y="148" width="227" height="114" fill="black">
<rect fill="white" x="80" y="148" width="227" height="114"/>
<path d="M107.636 158.909H139.091L152 211.636H153.091L183.455 158.909H214.909L199.455 252H174.727L183.636 198.182H182.909L153.455 251.273H138.545L126.727 197.818H126L116.909 252H92.1818L107.636 158.909ZM211.432 252L226.886 158.909H267.068C273.977 158.909 279.811 160.167 284.568 162.682C289.326 165.197 292.75 168.818 294.841 173.545C296.932 178.273 297.432 183.939 296.341 190.545C295.25 197.212 292.841 202.833 289.114 207.409C285.417 211.955 280.705 215.409 274.977 217.773C269.28 220.106 262.886 221.273 255.795 221.273H231.795L235.068 201.636H253.977C256.947 201.636 259.553 201.273 261.795 200.545C264.038 199.788 265.856 198.606 267.25 197C268.644 195.364 269.553 193.212 269.977 190.545C270.402 187.879 270.189 185.712 269.341 184.045C268.492 182.348 267.083 181.106 265.114 180.318C263.144 179.5 260.705 179.091 257.795 179.091H248.886L236.705 252H211.432ZM273.068 209.273L289.25 252H261.795L246.159 209.273H273.068Z"/>
</mask>
<path d="M107.636 158.909H139.091L152 211.636H153.091L183.455 158.909H214.909L199.455 252H174.727L183.636 198.182H182.909L153.455 251.273H138.545L126.727 197.818H126L116.909 252H92.1818L107.636 158.909ZM211.432 252L226.886 158.909H267.068C273.977 158.909 279.811 160.167 284.568 162.682C289.326 165.197 292.75 168.818 294.841 173.545C296.932 178.273 297.432 183.939 296.341 190.545C295.25 197.212 292.841 202.833 289.114 207.409C285.417 211.955 280.705 215.409 274.977 217.773C269.28 220.106 262.886 221.273 255.795 221.273H231.795L235.068 201.636H253.977C256.947 201.636 259.553 201.273 261.795 200.545C264.038 199.788 265.856 198.606 267.25 197C268.644 195.364 269.553 193.212 269.977 190.545C270.402 187.879 270.189 185.712 269.341 184.045C268.492 182.348 267.083 181.106 265.114 180.318C263.144 179.5 260.705 179.091 257.795 179.091H248.886L236.705 252H211.432ZM273.068 209.273L289.25 252H261.795L246.159 209.273H273.068Z" fill="#0B1E96"/>
<path d="M107.636 158.909V148.909H99.1597L97.7714 157.271L107.636 158.909ZM139.091 158.909L148.804 156.531L146.938 148.909H139.091V158.909ZM152 211.636L142.287 214.014L144.153 221.636H152V211.636ZM153.091 211.636V221.636H158.872L161.757 216.627L153.091 211.636ZM183.455 158.909V148.909H177.674L174.789 153.919L183.455 158.909ZM214.909 158.909L224.774 160.547L226.706 148.909H214.909V158.909ZM199.455 252V262H207.931L209.32 253.638L199.455 252ZM174.727 252L164.862 250.367L162.936 262H174.727V252ZM183.636 198.182L193.502 199.815L195.428 188.182H183.636V198.182ZM182.909 198.182V188.182H177.021L174.165 193.33L182.909 198.182ZM153.455 251.273V261.273H159.342L162.199 256.124L153.455 251.273ZM138.545 251.273L128.781 253.431L130.515 261.273H138.545V251.273ZM126.727 197.818L136.491 195.659L134.758 187.818H126.727V197.818ZM126 197.818V187.818H117.538L116.138 196.163L126 197.818ZM116.909 252V262H125.371L126.771 253.655L116.909 252ZM92.1818 252L82.3168 250.362L80.3848 262H92.1818V252ZM107.636 158.909V168.909H139.091V158.909V148.909H107.636V158.909ZM139.091 158.909L129.378 161.287L142.287 214.014L152 211.636L161.713 209.258L148.804 156.531L139.091 158.909ZM152 211.636V221.636H153.091V211.636V201.636H152V211.636ZM153.091 211.636L161.757 216.627L192.12 163.899L183.455 158.909L174.789 153.919L144.425 206.646L153.091 211.636ZM183.455 158.909V168.909H214.909V158.909V148.909H183.455V158.909ZM214.909 158.909L205.044 157.271L189.59 250.362L199.455 252L209.32 253.638L224.774 160.547L214.909 158.909ZM199.455 252V242H174.727V252V262H199.455V252ZM174.727 252L184.593 253.633L193.502 199.815L183.636 198.182L173.771 196.549L164.862 250.367L174.727 252ZM183.636 198.182V188.182H182.909V198.182V208.182H183.636V198.182ZM182.909 198.182L174.165 193.33L144.71 246.421L153.455 251.273L162.199 256.124L191.653 203.033L182.909 198.182ZM153.455 251.273V241.273H138.545V251.273V261.273H153.455V251.273ZM138.545 251.273L148.31 249.114L136.491 195.659L126.727 197.818L116.963 199.977L128.781 253.431L138.545 251.273ZM126.727 197.818V187.818H126V197.818V207.818H126.727V197.818ZM126 197.818L116.138 196.163L107.047 250.345L116.909 252L126.771 253.655L135.862 199.473L126 197.818ZM116.909 252V242H92.1818V252V262H116.909V252ZM92.1818 252L102.047 253.638L117.501 160.547L107.636 158.909L97.7714 157.271L82.3168 250.362L92.1818 252ZM211.432 252L201.567 250.362L199.635 262H211.432V252ZM226.886 158.909V148.909H218.41L217.021 157.271L226.886 158.909ZM294.841 173.545L303.986 169.5V169.5L294.841 173.545ZM296.341 190.545L286.475 188.916L286.473 188.923L286.472 188.931L296.341 190.545ZM289.114 207.409L281.36 201.093L281.356 201.099L289.114 207.409ZM274.977 217.773L278.767 227.027L278.78 227.022L278.792 227.016L274.977 217.773ZM231.795 221.273L221.932 219.629L219.991 231.273H231.795V221.273ZM235.068 201.636V191.636H226.597L225.204 199.992L235.068 201.636ZM261.795 200.545L264.881 210.058L264.938 210.039L264.996 210.019L261.795 200.545ZM267.25 197L274.802 203.555L274.832 203.52L274.862 203.485L267.25 197ZM269.977 190.545L260.101 188.974V188.974L269.977 190.545ZM269.341 184.045L260.397 188.518L260.413 188.55L260.429 188.582L269.341 184.045ZM265.114 180.318L261.278 189.553L261.338 189.578L261.4 189.603L265.114 180.318ZM248.886 179.091V169.091H240.419L239.023 177.443L248.886 179.091ZM236.705 252V262H245.172L246.568 253.648L236.705 252ZM273.068 209.273L282.42 205.731L279.974 199.273H273.068V209.273ZM289.25 252V262H303.73L298.602 248.458L289.25 252ZM261.795 252L252.405 255.437L254.806 262H261.795V252ZM246.159 209.273V199.273H231.851L236.768 212.709L246.159 209.273ZM211.432 252L221.297 253.638L236.751 160.547L226.886 158.909L217.021 157.271L201.567 250.362L211.432 252ZM226.886 158.909V168.909H267.068V158.909V148.909H226.886V158.909ZM267.068 158.909V168.909C272.798 168.909 276.928 169.954 279.894 171.522L284.568 162.682L289.242 153.841C282.693 150.379 275.157 148.909 267.068 148.909V158.909ZM284.568 162.682L279.894 171.522C282.753 173.034 284.553 175.008 285.696 177.591L294.841 173.545L303.986 169.5C300.947 162.628 295.899 157.36 289.242 153.841L284.568 162.682ZM294.841 173.545L285.696 177.591C286.797 180.08 287.341 183.671 286.475 188.916L296.341 190.545L306.207 192.175C307.523 184.208 307.067 176.465 303.986 169.5L294.841 173.545ZM296.341 190.545L286.472 188.931C285.622 194.126 283.832 198.059 281.36 201.093L289.114 207.409L296.867 213.725C301.85 207.608 304.878 200.299 306.21 192.16L296.341 190.545ZM289.114 207.409L281.356 201.099C278.769 204.279 275.443 206.762 271.162 208.529L274.977 217.773L278.792 227.016C285.966 224.056 292.064 219.63 296.872 213.719L289.114 207.409ZM274.977 217.773L271.187 208.519C266.862 210.29 261.782 211.273 255.795 211.273V221.273V231.273C263.991 231.273 271.699 229.922 278.767 227.027L274.977 217.773ZM255.795 221.273V211.273H231.795V221.273V231.273H255.795V221.273ZM231.795 221.273L241.659 222.917L244.932 203.28L235.068 201.636L225.204 199.992L221.932 219.629L231.795 221.273ZM235.068 201.636V211.636H253.977V201.636V191.636H235.068V201.636ZM253.977 201.636V211.636C257.735 211.636 261.422 211.179 264.881 210.058L261.795 200.545L258.71 191.033C257.684 191.366 256.159 191.636 253.977 191.636V201.636ZM261.795 200.545L264.996 210.019C268.728 208.759 272.115 206.651 274.802 203.555L267.25 197L259.698 190.445C259.597 190.561 259.348 190.817 258.595 191.071L261.795 200.545ZM267.25 197L274.862 203.485C277.718 200.132 279.213 196.137 279.853 192.117L269.977 190.545L260.101 188.974C259.893 190.287 259.57 190.595 259.638 190.515L267.25 197ZM269.977 190.545L279.853 192.117C280.468 188.253 280.401 183.728 278.253 179.509L269.341 184.045L260.429 188.582C260.203 188.137 260.18 187.853 260.184 187.895C260.19 187.956 260.21 188.29 260.101 188.974L269.977 190.545ZM269.341 184.045L278.285 179.573C276.21 175.423 272.783 172.615 268.828 171.033L265.114 180.318L261.4 189.603C261.459 189.627 261.29 189.567 261.034 189.342C260.765 189.104 260.542 188.807 260.397 188.518L269.341 184.045ZM265.114 180.318L268.95 171.083C265.408 169.612 261.572 169.091 257.795 169.091V179.091V189.091C259.837 189.091 260.879 189.388 261.278 189.553L265.114 180.318ZM257.795 179.091V169.091H248.886V179.091V189.091H257.795V179.091ZM248.886 179.091L239.023 177.443L226.841 250.352L236.705 252L246.568 253.648L258.75 180.739L248.886 179.091ZM236.705 252V242H211.432V252V262H236.705V252ZM273.068 209.273L263.716 212.814L279.898 255.542L289.25 252L298.602 248.458L282.42 205.731L273.068 209.273ZM289.25 252V242H261.795V252V262H289.25V252ZM261.795 252L271.186 248.563L255.55 205.836L246.159 209.273L236.768 212.709L252.405 255.437L261.795 252ZM246.159 209.273V219.273H273.068V209.273V199.273H246.159V209.273Z" fill="white" mask="url(#path-7-outside-1_1333_9)"/>
</svg>
